<?xml version="1.0" encoding="utf-8"?>
<!-- Generator: Adobe Illustrator 16.0.0, SVG Export Plug-In . SVG Version: 6.00 Build 0)  -->
<!DOCTYPE svg PUBLIC "-//W3C//DTD SVG 1.1//EN" "http://www.w3.org/Graphics/SVG/1.1/DTD/svg11.dtd">
<svg version="1.1" id="Layer_1" xmlns="http://www.w3.org/2000/svg" xmlns:xlink="http://www.w3.org/1999/xlink" x="0px" y="0px"
	 width="202.5px" height="236.506px" viewBox="0 0 202.5 236.506" enable-background="new 0 0 202.5 236.506" xml:space="preserve">
<path fill="#CCCBCB" d="M196.906,138.185l4.598-0.5l-1.914-4.208c-4.641-10.203-8.687-19.229-12.182-27.027
	c-3.449-7.698-6.429-14.345-8.871-19.643c-2.191-4.755-4.143-8.707-5.89-12.009c11.888-0.675,13.714-7.449,13.909-10.575
	c0.559-8.947-10.017-21.621-18.552-22.232c-3.371-0.241-6.119,0.657-8.168,2.67c-3.464,3.405-3.749,8.919-3.601,13.373h-13.803
	V22.067l-0.014-0.303c-0.641-7.019-6.105-20.293-22.2-20.293c-9.801,0-15.817,5.813-19.116,11.74
	c-3.298-5.926-9.315-11.74-19.118-11.74c-16.093,0-21.559,13.274-22.2,20.293l-0.014,36.27H47.033
	c0.146-4.454-0.141-9.968-3.604-13.373c-2.045-2.013-4.791-2.911-8.166-2.67c-8.534,0.611-19.11,13.285-18.552,22.232
	c0.193,3.106,2.015,9.81,13.658,10.563c-1.75,3.304-3.702,7.26-5.898,12.021c-2.441,5.297-5.422,11.944-8.869,19.643
	c-3.496,7.798-7.541,16.824-12.182,27.027l-1.917,4.212l4.6,0.496c2.943,0.315,6.873,1.001,10.892,2.05l-9.178,35.319
	c-0.448,1.068-0.793,2.218-0.99,3.474c-1.907,12.093,10.281,17.803,19.18,21.967c2.129,0.998,4.143,1.938,5.681,2.834
	c2.463,1.433,5.121,2.845,8.196,4.482c7.115,3.784,15.968,8.493,28.532,16.655c0.645,0.42,1.298,0.785,1.945,1.177l-0.019,0.034
	c9.874,6.25,20.318,9.372,30.86,9.372c0.177,0,0.354-0.021,0.526-0.022c0.016,0,0.032,0.002,0.046,0.002
	c10.581,0,21.079-3.138,31.005-9.422l-0.021-0.029c0.611-0.374,1.224-0.718,1.833-1.111c12.563-8.162,21.416-12.871,28.531-16.655
	c3.076-1.638,5.733-3.05,8.194-4.482c1.541-0.896,3.554-1.836,5.681-2.834c8.899-4.164,21.089-9.874,19.183-21.967
	c-0.207-1.316-0.578-2.512-1.059-3.624l-9.417-35.095C190.137,139.156,194.341,138.462,196.906,138.185z M181.31,109.184
	c3.027,6.756,6.466,14.429,10.35,22.994c-6.334,1.066-17.419,3.607-24.363,9.016l-3.901-69.177c2.262,3.73,5.247,9.291,9.074,17.59
	C174.893,94.871,177.866,101.504,181.31,109.184z M97.841,64.717c-0.695,1.66-1.73,3.663-3.236,5.653
	c-4.845,6.406-12.129,9.672-21.509,9.55c-9.677-0.07-16.925-2.519-21.543-7.276c-2.638-2.716-3.881-5.707-4.396-7.927H97.841z
	 M156.112,64.717c-0.517,2.22-1.762,5.211-4.397,7.927c-4.618,4.757-11.864,7.206-21.541,7.276c-0.097,0-0.19,0-0.287,0
	c-15.844,0-22.151-9.588-24.488-15.203H156.112z M164.525,49.426c0.229-0.227,0.924-0.924,3.003-0.768
	c4.561,0.326,12.714,9.436,12.356,15.147c-0.251,4.05-6.123,4.594-11.002,4.333c-2.425-3.954-4.325-6.34-5.846-7.791
	c-0.007-0.08-0.009-0.152-0.013-0.233C162.855,57.06,162.545,51.373,164.525,49.426z M105.479,58.034
	c1.507-4.43,5.435-12.029,14.718-12.029c9.284,0.068,13.231,7.618,14.753,12.029H105.479z M104.689,22.401
	c0.439-2.027,3.582-14.245,15.53-14.245c13.383,0,15.308,12.142,15.528,14.086v24.034c-3.518-3.903-8.56-6.905-15.504-6.955h-0.177
	c-6.879,0-11.881,2.965-15.378,6.852V22.401z M66.457,22.246c0.227-1.991,2.169-14.09,15.528-14.09
	c11.963,0,15.099,12.246,15.53,14.245v23.773c-3.495-3.887-8.497-6.852-15.377-6.852h-0.177c-6.944,0.05-11.984,3.051-15.504,6.955
	V22.246z M69.444,53.406c2.983-4.872,7.212-7.36,12.694-7.401c9.19,0,13.091,7.6,14.59,12.029H67.272
	C67.745,56.684,68.443,55.039,69.444,53.406z M23.383,63.806c-0.355-5.711,7.796-14.821,12.358-15.147
	c2.063-0.15,2.772,0.541,3.003,0.768c1.975,1.944,1.669,7.611,1.5,10.669c-1.565,1.424-3.552,3.857-6.125,8.056
	C29.287,68.374,23.632,67.783,23.383,63.806z M21.702,109.184c3.441-7.68,6.416-14.313,8.841-19.578
	c3.777-8.188,6.731-13.708,8.981-17.437l-3.825,69.011c-6.945-5.398-18.018-7.936-24.348-9.002
	C15.233,123.613,18.674,115.939,21.702,109.184z M35.255,152.324c0.125,4.661-4.329,7.02-11.607,10.48
	c-2.139,1.017-4.359,2.079-6.466,3.292l6.203-23.869C29.801,144.612,35.139,147.987,35.255,152.324z M174.166,194.942
	c-2.267,1.063-4.407,2.063-6.203,3.107c-2.354,1.368-4.96,2.754-7.979,4.361c-7.226,3.845-16.224,8.63-29.032,16.951
	c-1.165,0.757-2.334,1.468-3.505,2.133c-0.03,0.021-0.059,0.036-0.087,0.053c-7.127,4.05-14.335,6.433-21.511,7.149
	c-0.053,0.004-0.104,0.01-0.157,0.014c-0.803,0.078-1.606,0.108-2.41,0.145c-0.753,0.024-1.511,0.057-2.266,0.045
	c-0.094,0-0.189-0.004-0.283-0.004c-9.566-0.213-19.213-3.392-28.672-9.534c-12.809-8.321-21.806-13.106-29.034-16.951
	c-3.017-1.607-5.625-2.993-7.977-4.361c-1.796-1.044-3.938-2.045-6.204-3.107c-9.034-4.229-15.92-7.995-15.474-14.179l0.755-2.904
	c1.911-4.021,7.019-6.463,12.393-9.017c7.343-3.493,15.665-7.452,15.42-16.697c-0.012-0.392-0.044-0.775-0.088-1.151l4.134-74.579
	c0.261,0.293,0.492,0.597,0.771,0.884c5.914,6.091,14.757,9.221,26.292,9.305c0.115,0.002,0.227,0.002,0.342,0.002
	c15.751,0,24.028-7.945,28.244-14.813c4.215,6.869,12.489,14.813,28.247,14.813c0.112,0,0.227,0,0.341-0.002
	c11.533-0.084,20.378-3.214,26.29-9.305c0.167-0.17,0.298-0.349,0.456-0.522l4.188,74.26c-0.042,0.363-0.072,0.73-0.084,1.108
	c-0.245,9.245,8.077,13.204,15.42,16.697c5.335,2.536,10.406,4.96,12.349,8.93l0.795,2.967
	C190.104,186.937,183.212,190.708,174.166,194.942z M185.687,166.018c-2.065-1.181-4.232-2.22-6.324-3.214
	c-7.277-3.461-11.731-5.819-11.606-10.48c0.118-4.424,5.371-7.72,11.566-10.026L185.687,166.018z"/>
<path fill="#CCCBCB" d="M142.076,144.494l-1.061-2.523c-2.166-5.15-5.966-8.681-10.99-10.346c1.416-1.287,2.6-2.752,3.509-4.415
	c4.048-7.403,1.248-15.623,1.13-15.971l-0.904-2.582l-2.69,0.502c-13.117,2.44-15.986,14.89-15.699,22.75
	c-4.274,1.722-7.663,4.342-10.238,7.079V119.99c5.09-0.88,9.122-3.026,11.979-6.443c5.557-6.647,4.383-15.486,4.331-15.86
	l-0.401-2.839l-3.145-0.038c-8.134,0-13.286,4.319-16.388,9.476c-3.1-5.157-8.256-9.476-16.396-9.476l-3.146,0.038l-0.4,2.839
	c-0.054,0.374-1.228,9.212,4.331,15.86c2.961,3.543,7.186,5.713,12.547,6.527v19.177c-2.604-2.829-6.069-5.563-10.482-7.341
	c0.289-7.86-2.58-20.31-15.697-22.75l-2.69-0.502l-0.902,2.582c-0.121,0.348-2.921,8.567,1.127,15.971
	c0.91,1.663,2.091,3.128,3.509,4.415c-5.024,1.665-8.825,5.195-10.991,10.346l-1.061,2.523l2.334,1.43
	c0.197,0.121,4.894,2.953,10.81,2.953c4.548,0,10.649-1.665,15.418-8.976c3.087,2.107,5.31,4.729,6.74,6.881
	c1.426,2.245,1.796,7.611,1.884,10.918v13.124h6.688v-15.376c0.118-3.136,0.508-6.902,1.65-8.679
	c1.433-2.151,3.658-4.774,6.75-6.882c4.768,7.298,10.858,8.989,15.4,8.989c5.916,0,10.612-2.832,10.81-2.953L142.076,144.494z
	 M74.09,116.343c5.812,2.609,7.202,8.889,7.455,13.052c-2.849-1.237-4.904-2.979-6.131-5.201
	C73.93,121.508,73.855,118.505,74.09,116.343z M74.402,142.504c-1.766,0-3.403-0.378-4.693-0.806
	c2.316-3.222,5.868-4.797,10.771-4.797c1.258,0,2.451,0.11,3.494,0.266C81.411,140.712,78.203,142.504,74.402,142.504z
	 M114.816,101.825c-0.203,2.196-0.884,5.123-2.867,7.473c-1.603,1.898-3.891,3.192-6.817,3.883v-0.462
	c0.335-1.147,0.763-2.387,1.367-3.634C108.456,105.049,111.194,102.653,114.816,101.825z M88.19,101.845
	c6.151,1.473,8.773,7.294,9.868,11.372c0,0.006-0.002,0.01-0.004,0.016c-3.015-0.681-5.362-1.997-6.999-3.935
	C89.079,106.954,88.397,104.037,88.19,101.845z M122.519,124.903c1.133-4.272,3.342-7.105,6.723-8.58
	c0.237,2.155,0.167,5.147-1.299,7.831c-1.222,2.233-3.274,3.983-6.127,5.23C121.899,128.044,122.101,126.486,122.519,124.903z
	 M128.933,142.504c-3.801,0-7.009-1.792-9.572-5.337c1.044-0.155,2.235-0.266,3.493-0.266c4.903,0,8.455,1.575,10.771,4.797
	C132.335,142.126,130.698,142.504,128.933,142.504z"/>
<path fill="#CCCBCB" d="M61.109,161.666l-2.511-6.198c-5.44,2.206-7.133,7.341-7.646,10.849H41.36V173h1.98v7.929
	c0,0,0.424,3.1,2.953,5.245c2.173,1.84,7.786,4.978,7.786,4.976c0.002,0.002,5.958-3.274,8.063-5.188
	c2.569-2.335,2.678-5.032,2.678-5.032V173h1.991v-6.684h-9.078C58.14,164.534,59.052,162.497,61.109,161.666z M57.913,179.988
	c-0.054,3.012-3.765,3.525-3.833,3.535c-0.066-0.01-3.776-0.523-3.831-3.535c-0.041-2.189-0.05-5.374-0.054-6.988h7.77
	C57.963,174.614,57.951,177.798,57.913,179.988z"/>
<path fill="#CCCBCB" d="M155.833,161.666l-2.511-6.198c-5.44,2.206-7.132,7.341-7.646,10.849h-9.59V173h1.979v7.929
	c0,0,0.424,3.1,2.955,5.245c2.172,1.84,7.784,4.978,7.786,4.976c0,0.002,5.957-3.274,8.062-5.188
	c2.569-2.335,2.678-5.032,2.678-5.032V173h1.993v-6.684h-9.08C152.864,164.534,153.776,162.497,155.833,161.666z M152.637,179.988
	c-0.054,3.012-3.765,3.525-3.831,3.535c-0.068-0.01-3.778-0.523-3.833-3.535c-0.04-2.189-0.05-5.374-0.052-6.988h7.769
	C152.688,174.614,152.677,177.798,152.637,179.988z"/>
<path fill="#CCCBCB" d="M108.568,185.086l-2.511-6.197c-5.44,2.206-7.136,7.338-7.646,10.846h-9.592v6.686H90.8v7.927
	c0,0,0.424,3.104,2.953,5.247c2.174,1.841,7.787,4.977,7.787,4.977c0.002,0,5.958-3.274,8.064-5.189
	c2.569-2.334,2.678-5.034,2.678-5.034v-7.927h1.992v-6.686h-9.08C105.6,187.955,106.512,185.918,108.568,185.086z M105.372,203.407
	c-0.054,3.012-3.766,3.528-3.833,3.538c-0.066-0.01-3.777-0.526-3.831-3.538c-0.04-2.189-0.05-5.371-0.052-6.986h7.769
	C105.423,198.036,105.41,201.217,105.372,203.407z"/>
</svg>
